<svg width="112" height="50" viewBox="0 0 112 50" fill="none" xmlns="http://www.w3.org/2000/svg">
<path d="M0 20.7402H11.7025L17.4074 24.4439H5.85123L0 20.7402Z" fill="white"/>
<path d="M1.11133 15.1855H12.0668L17.4076 24.4448H6.58907L1.11133 15.1855Z" fill="white" fill-opacity="0.75"/>
<path d="M2.59277 9.62891H12.5523L17.4076 24.4437H7.57254L2.59277 9.62891Z" fill="white" fill-opacity="0.65"/>
<path d="M4.44434 4.44531H13.1589L17.4073 24.4453H8.80163L4.44434 4.44531Z" fill="white" fill-opacity="0.4"/>
<path d="M6.2959 0H13.7656L17.407 24.4444H10.0307L6.2959 0Z" fill="white" fill-opacity="0.25"/>
<path d="M23.7041 29.2598H12.0016L6.29669 25.5561H17.8529L23.7041 29.2598Z" fill="white"/>
<path d="M22.5928 34.8145H11.6373L6.29648 25.5552H17.115L22.5928 34.8145Z" fill="white" fill-opacity="0.75"/>
<path d="M21.1113 40.3711H11.1518L6.29651 25.5563H16.1316L21.1113 40.3711Z" fill="white" fill-opacity="0.65"/>
<path d="M19.2598 45.5547H10.5452L6.2968 25.5547H14.9025L19.2598 45.5547Z" fill="white" fill-opacity="0.4"/>
<path d="M17.4082 50H9.93855L6.29709 25.5556H13.6734L17.4082 50Z" fill="white" fill-opacity="0.25"/>
<path d="M45.4561 16.4555C46.5654 16.4555 47.9841 16.6261 49.7121 16.9675L50.5761 17.1595L50.4481 20.5515C48.7628 20.3808 47.5148 20.2955 46.7041 20.2955C45.2321 20.2955 44.2508 20.6155 43.7601 21.2555C43.2908 21.8741 43.0561 23.0581 43.0561 24.8075C43.0561 26.5568 43.2908 27.7621 43.7601 28.4235C44.2508 29.0635 45.2428 29.3835 46.7361 29.3835L50.4481 29.1275L50.5761 32.5515C48.2934 32.9995 46.5548 33.2235 45.3601 33.2235C42.9921 33.2235 41.2854 32.5621 40.2401 31.2395C39.2161 29.8955 38.7041 27.7515 38.7041 24.8075C38.7041 21.8635 39.2374 19.7408 40.3041 18.4395C41.3708 17.1168 43.0881 16.4555 45.4561 16.4555Z" fill="white"/>
<path d="M52.2814 16.8395H56.5054L59.4174 29.1915H60.1534L63.0654 16.8395H67.2894L61.6574 39.5595H57.4654L59.2254 32.8395H56.2174L52.2814 16.8395Z" fill="white"/>
<path d="M75.4874 16.4555C76.5967 16.4555 78.0154 16.6261 79.7434 16.9675L80.6074 17.1595L80.4794 20.5515C78.794 20.3808 77.546 20.2955 76.7354 20.2955C75.2634 20.2955 74.282 20.6155 73.7914 21.2555C73.322 21.8741 73.0874 23.0581 73.0874 24.8075C73.0874 26.5568 73.322 27.7621 73.7914 28.4235C74.282 29.0635 75.274 29.3835 76.7674 29.3835L80.4794 29.1275L80.6074 32.5515C78.3247 32.9995 76.586 33.2235 75.3913 33.2235C73.0233 33.2235 71.3167 32.5621 70.2714 31.2395C69.2474 29.8955 68.7354 27.7515 68.7354 24.8075C68.7354 21.8635 69.2687 19.7408 70.3354 18.4395C71.402 17.1168 73.1194 16.4555 75.4874 16.4555Z" fill="white"/>
<path d="M83.9766 32.8395V10.4395H88.2646V32.8395H83.9766Z" fill="white"/>
<path d="M92.4096 32.8395V16.8395H96.6976V32.8395H92.4096ZM92.4096 14.7915V10.4395H96.6976V14.7915H92.4096Z" fill="white"/>
<path d="M106.644 16.4555C107.753 16.4555 109.172 16.6261 110.9 16.9675L111.764 17.1595L111.636 20.5515C109.95 20.3808 108.702 20.2955 107.892 20.2955C106.42 20.2955 105.438 20.6155 104.948 21.2555C104.478 21.8741 104.244 23.0581 104.244 24.8075C104.244 26.5568 104.478 27.7621 104.948 28.4235C105.438 29.0635 106.43 29.3835 107.924 29.3835L111.636 29.1275L111.764 32.5515C109.481 32.9995 107.742 33.2235 106.548 33.2235C104.18 33.2235 102.473 32.5621 101.428 31.2395C100.404 29.8955 99.8916 27.7515 99.8916 24.8075C99.8916 21.8635 100.425 19.7408 101.492 18.4395C102.558 17.1168 104.276 16.4555 106.644 16.4555Z" fill="white"/>
</svg>
