<svg width="342" height="342" viewBox="0 0 342 342" fill="none" xmlns="http://www.w3.org/2000/svg">
<g clip-path="url(#clip0)">
<rect width="342" height="342" fill="white"/>
<g opacity="0.15">
<path d="M297.803 214.089H173.826L113.387 174.82H235.814L297.803 214.089Z" stroke="#2E59C7" stroke-linejoin="round"/>
<path opacity="0.85" d="M286.031 272.994H169.968L113.387 174.82H228L286.031 272.994Z" stroke="#2E59C7" stroke-linejoin="round"/>
<path opacity="0.75" d="M270.336 331.899H164.824L113.387 174.82H217.58L270.336 331.899Z" stroke="#2E59C7" stroke-linejoin="round"/>
<path opacity="0.5" d="M250.718 386.876H158.394L113.387 174.82H204.556L250.718 386.876Z" stroke="#2E59C7" stroke-linejoin="round"/>
<path opacity="0.25" d="M231.099 434H151.965L113.387 174.82H191.532L231.099 434Z" stroke="#2E59C7" stroke-linejoin="round"/>
</g>
<g opacity="0.15">
<path d="M43.312 126.911L167.289 126.911L227.728 166.181L105.301 166.18L43.312 126.911Z" stroke="#2E59C7" stroke-linejoin="round"/>
<path opacity="0.85" d="M55.0832 68.0061L171.147 68.0061L227.728 166.18L113.115 166.18L55.0832 68.0061Z" stroke="#2E59C7" stroke-linejoin="round"/>
<path opacity="0.75" d="M70.7782 9.10144L176.291 9.10145L227.728 166.18L123.534 166.18L70.7782 9.10144Z" stroke="#2E59C7" stroke-linejoin="round"/>
<path opacity="0.5" d="M90.397 -45.8761L182.72 -45.8761L227.728 166.181L136.559 166.181L90.397 -45.8761Z" stroke="#2E59C7" stroke-linejoin="round"/>
<path opacity="0.25" d="M110.016 -92.9999L189.15 -92.9999L227.728 166.18L149.583 166.18L110.016 -92.9999Z" stroke="#2E59C7" stroke-linejoin="round"/>
</g>
<g opacity="0.15">
<path d="M101 306.75L2.16278 306.75L-46.0203 338.056L51.5814 338.056L101 306.75Z" stroke="#2E59C7" stroke-linejoin="round"/>
<path opacity="0.85" d="M91.6157 259.79L-0.912706 259.79L-46.0203 338.056L45.3515 338.056L91.6157 259.79Z" stroke="#2E59C7" stroke-linejoin="round"/>
<path opacity="0.75" d="M79.1033 212.829L-5.01344 212.829L-46.0203 338.056L37.045 338.056L79.1033 212.829Z" stroke="#2E59C7" stroke-linejoin="round"/>
<path opacity="0.5" d="M63.4628 169L-10.1393 169L-46.0204 338.056L26.6618 338.056L63.4628 169Z" stroke="#2E59C7" stroke-linejoin="round"/>
<path opacity="0.25" d="M47.8224 131.432L-15.2652 131.432L-46.0203 338.056L16.2786 338.056L47.8224 131.432Z" stroke="#2E59C7" stroke-linejoin="round"/>
</g>
<g opacity="0.15">
<path d="M-100 33.8182H-1.16282L47.0203 2.51159H-50.5814L-100 33.8182Z" stroke="#2E59C7" stroke-linejoin="round"/>
<path opacity="0.85" d="M-90.6157 80.7782H1.91271L47.0203 2.51158H-44.3515L-90.6157 80.7782Z" stroke="#2E59C7" stroke-linejoin="round"/>
<path opacity="0.75" d="M-78.1033 127.738H6.01342L47.0203 2.51167H-36.045L-78.1033 127.738Z" stroke="#2E59C7" stroke-linejoin="round"/>
<path opacity="0.5" d="M-62.4629 171.568H11.1393L47.0204 2.51155H-25.6618L-62.4629 171.568Z" stroke="#2E59C7" stroke-linejoin="round"/>
<path opacity="0.25" d="M-46.8224 209.136H16.2651L47.0203 2.51167H-15.2786L-46.8224 209.136Z" stroke="#2E59C7" stroke-linejoin="round"/>
</g>
<g opacity="0.15">
<path d="M442.885 306.75L344.048 306.75L295.865 338.056L393.467 338.056L442.885 306.75Z" stroke="#2E59C7" stroke-linejoin="round"/>
<path opacity="0.85" d="M433.501 259.79L340.973 259.79L295.865 338.056L387.237 338.056L433.501 259.79Z" stroke="#2E59C7" stroke-linejoin="round"/>
<path opacity="0.75" d="M420.989 212.829L336.872 212.829L295.865 338.056L378.93 338.056L420.989 212.829Z" stroke="#2E59C7" stroke-linejoin="round"/>
<path opacity="0.5" d="M405.348 169L331.746 169L295.865 338.056L368.547 338.056L405.348 169Z" stroke="#2E59C7" stroke-linejoin="round"/>
<path opacity="0.25" d="M389.708 131.432L326.62 131.432L295.865 338.056L358.164 338.056L389.708 131.432Z" stroke="#2E59C7" stroke-linejoin="round"/>
</g>
<g opacity="0.15">
<path d="M241.885 33.8182H340.722L388.906 2.51159H291.304L241.885 33.8182Z" stroke="#2E59C7" stroke-linejoin="round"/>
<path opacity="0.85" d="M251.27 80.7782H343.798L388.906 2.51158H297.534L251.27 80.7782Z" stroke="#2E59C7" stroke-linejoin="round"/>
<path opacity="0.75" d="M263.782 127.738H347.899L388.906 2.51167H305.84L263.782 127.738Z" stroke="#2E59C7" stroke-linejoin="round"/>
<path opacity="0.5" d="M279.422 171.568H353.025L388.906 2.51155H316.224L279.422 171.568Z" stroke="#2E59C7" stroke-linejoin="round"/>
<path opacity="0.25" d="M295.063 209.136H358.15L388.906 2.51167H326.607L295.063 209.136Z" stroke="#2E59C7" stroke-linejoin="round"/>
</g>
</g>
<defs>
<clipPath id="clip0">
<rect width="342" height="342" fill="white"/>
</clipPath>
</defs>
</svg>
